<?xml version="1.0" encoding="utf-8"?>
<!-- Generator: Adobe Illustrator 15.0.2, SVG Export Plug-In . SVG Version: 6.00 Build 0)  -->
<!DOCTYPE svg PUBLIC "-//W3C//DTD SVG 1.1//EN" "http://www.w3.org/Graphics/SVG/1.1/DTD/svg11.dtd">
<svg version="1.1" id="Layer_12" xmlns="http://www.w3.org/2000/svg" xmlns:xlink="http://www.w3.org/1999/xlink" x="0px" y="0px"
	 width="767px" height="657px" viewBox="0 0 767 657" enable-background="new 0 0 767 657" xml:space="preserve">
<path fill="#3953A4" d="M229.079,49.221c-23.239,8.267-47.866,20.532-59.391,26.756c-18.63,10.062-42.9,50.19-48.495,57.312
	c-5.596,7.122-22.043,16.617-29.843,26.454c-8.985,11.33-12.548,22.043-20.009,43.408c-15.388,19.203-26.112,24.079-31.877,57.653
	c-14.113,7.193-27.997,50.964-26.435,83.275C208,316,268.5,280.352,268.5,280.352c12.205,3.051,15.256-13.222,26.952-17.799
	c5.195-2.033,12.899-3.564,21.553-4.504C322.51,186.599,270,92,229.079,49.221z"/>
</svg>
