<?xml version="1.0" encoding="utf-8"?>
<!-- Generator: Adobe Illustrator 15.0.2, SVG Export Plug-In . SVG Version: 6.00 Build 0)  -->
<!DOCTYPE svg PUBLIC "-//W3C//DTD SVG 1.1//EN" "http://www.w3.org/Graphics/SVG/1.1/DTD/svg11.dtd">
<svg version="1.1" id="Layer_11" xmlns="http://www.w3.org/2000/svg" xmlns:xlink="http://www.w3.org/1999/xlink" x="0px" y="0px"
	 width="767px" height="657px" viewBox="0 0 767 657" enable-background="new 0 0 767 657" xml:space="preserve">
<path fill="#FFFFFF" d="M494.234,26.465c-10.853-7.8-62.824-8.605-80.373-6.443c-41.713-10.852-54.939-3.878-88.174,10.174
	c-30.521-8.902-51.335,6.062-69.521,11.531c-8.108,1.339-17.48,4.078-27.087,7.495C270,92,322.51,186.599,317.005,258.049
	c10.826-1.177,23.136-1.429,33.876-0.581c19.324,1.525,92.043,24.409,121.03,25.426c2.813,0.099,5.688,0.203,8.599,0.315
	l-0.01,0.291c18.999-95.497,47.498-159.996,121.188-227.115l0,0C570.28,31.15,522.295,24.258,494.234,26.465z"/>
</svg>
