<?xml version="1.0" encoding="utf-8"?>
<!-- Generator: Adobe Illustrator 15.0.2, SVG Export Plug-In . SVG Version: 6.00 Build 0)  -->
<!DOCTYPE svg PUBLIC "-//W3C//DTD SVG 1.1//EN" "http://www.w3.org/Graphics/SVG/1.1/DTD/svg11.dtd">
<svg version="1.1" id="Layer_14" xmlns="http://www.w3.org/2000/svg" xmlns:xlink="http://www.w3.org/1999/xlink" x="0px" y="0px"
	 width="767px" height="657px" viewBox="0 0 767 657" enable-background="new 0 0 767 657" xml:space="preserve">
<g>
	<path fill="#ED1F24" d="M401.989,470.892c45.897,24.64,119.343,11.744,127.341,8.648c15.769-6.104,72.403-41.713,76.981-48.325
		c4.578-6.613,4.069-24.587,5.596-29.674c7.544-9.141,7.273-14.558,12.288-20.979c8.93-17.595-1.865-37.707-13.457-42.746
		c-11.695-5.085-49.835-39.157-62.04-45.768c-12.204-6.611-47.802-8.136-76.787-9.153c-28.986-1.017-101.706-23.901-121.03-25.426
		c-19.324-1.526-43.733,0.508-55.429,5.085c-11.696,4.577-14.748,20.85-26.952,17.799c0,0,45.5,85.648-23.003,198.041l0,0
		c1.168-0.031,2.166-0.094,3.038-0.21c7.63-1.017,18.228-4.52,38.321-6.952C307.234,468.764,347.898,473.437,401.989,470.892z"/>
</g>
</svg>
