<?xml version="1.0" encoding="utf-8"?>
<!-- Generator: Adobe Illustrator 15.0.2, SVG Export Plug-In . SVG Version: 6.00 Build 0)  -->
<!DOCTYPE svg PUBLIC "-//W3C//DTD SVG 1.1//EN" "http://www.w3.org/Graphics/SVG/1.1/DTD/svg11.dtd">
<svg version="1.1" id="Layer_10" xmlns="http://www.w3.org/2000/svg" xmlns:xlink="http://www.w3.org/1999/xlink" x="0px" y="0px"
	 width="767px" height="657px" viewBox="0 0 767 657" enable-background="new 0 0 767 657" xml:space="preserve">
<g>
	<path fill="#ED1F24" d="M627.244,377.203c57.913-1.605,105.222-46.37,102.17-72.144c0.513-8.648,16.956-19.5,19.839-25.604
		c14.243-36.117-4.744-43.748,1.696-54.43c7.46-10.682-10.853-61.042-34.592-87.494c-31.2-23.739-36.625-35.439-49.258-46.714
		c-16.532-12.208-30.433-26.371-58.58-28.405c-2.168-2.121-4.457-4.121-6.831-6.028C527.998,123.504,499.499,188.003,480.5,283.5
		c28.985,1.017,55.994,1.938,68.198,8.548c12.205,6.611,50.345,40.682,62.04,45.768c11.591,5.038,22.387,25.149,13.458,42.744
		C625.043,379.477,626.034,378.366,627.244,377.203z"/>
</g>
</svg>
